<?xml version="1.0" encoding="utf-8"?>
<!-- Generator: Adobe Illustrator 17.1.0, SVG Export Plug-In . SVG Version: 6.00 Build 0)  -->
<!DOCTYPE svg PUBLIC "-//W3C//DTD SVG 1.1//EN" "http://www.w3.org/Graphics/SVG/1.1/DTD/svg11.dtd">
<svg version="1.1" id="Layer_1" xmlns="http://www.w3.org/2000/svg" xmlns:xlink="http://www.w3.org/1999/xlink" x="0px" y="0px"
	 viewBox="0 0 88 62" enable-background="new 0 0 88 62" xml:space="preserve">
<g>
	<path fill="#A4BDE3" d="M6,27.08V3c0-0.551,0.449-1,1-1h74c0.552,0,1,0.449,1,1v12.08c0.328-0.047,0.66-0.08,1-0.08
		s0.672,0.033,1,0.08V3c0-1.654-1.346-3-3-3H7C5.346,0,4,1.346,4,3v24.08C4.328,27.033,4.66,27,5,27S5.672,27.033,6,27.08z"/>
	<path fill="#A4BDE3" d="M53,11h20c0.553,0,1-0.448,1-1s-0.447-1-1-1H53c-0.553,0-1,0.448-1,1S52.447,11,53,11z"/>
	<path fill="#A4BDE3" d="M73,13H63c-0.553,0-1,0.448-1,1s0.447,1,1,1h10c0.553,0,1-0.448,1-1S73.553,13,73,13z"/>
	<path fill="#A4BDE3" d="M45,19h28c0.553,0,1-0.448,1-1s-0.447-1-1-1H45c-0.552,0-1,0.448-1,1S44.448,19,45,19z"/>
	<path fill="#A4BDE3" d="M87,60h-3V28.92C83.672,28.967,83.34,29,83,29s-0.672-0.033-1-0.08V60H6V40.92C5.672,40.967,5.34,41,5,41
		s-0.672-0.033-1-0.08V60H1c-0.552,0-1,0.447-1,1s0.448,1,1,1h86c0.553,0,1-0.447,1-1S87.553,60,87,60z"/>
	<path fill="#5175B9" d="M8.063,31.459C7.329,30.575,6.236,30,5,30c-2.206,0-4,1.794-4,4c0,0.276,0.028,0.545,0.081,0.805
		C1.455,36.627,3.07,38,5,38s3.545-1.373,3.919-3.195C8.972,34.545,9,34.276,9,34c0-0.216-0.031-0.424-0.064-0.631l0,0
		c-0.006-0.035-0.004-0.072-0.011-0.106l7.99-3.748C17.65,30.414,18.752,31,20,31c0.686,0,1.322-0.19,1.887-0.495l8.679,9.477
		C30.215,40.576,30,41.261,30,42c0,2.206,1.794,4,4,4s4-1.794,4-4c0-0.03-0.008-0.057-0.009-0.087l7.686-2.69
		C46.396,40.293,47.616,41,49,41c0.763,0,1.469-0.226,2.076-0.597l10.283,9.961C61.133,50.865,61,51.416,61,52c0,2.206,1.794,4,4,4
		s4-1.794,4-4c0-1.016-0.393-1.935-1.019-2.641L81.683,25.76c0.168,0.059,0.334,0.123,0.511,0.159C82.455,25.972,82.724,26,83,26
		s0.545-0.028,0.805-0.081C85.626,25.545,87,23.93,87,22s-1.374-3.545-3.195-3.919C83.545,18.028,83.276,18,83,18
		s-0.545,0.028-0.805,0.081C80.373,18.455,79,20.07,79,22c0,0.048,0.012,0.092,0.014,0.139l0,0c0.034,0.961,0.408,1.829,1.005,2.502
		L66.317,48.24C65.902,48.095,65.464,48,65,48c-0.894,0-1.712,0.305-2.379,0.803l-10.157-9.839C52.795,38.381,53,37.717,53,37
		c0-2.206-1.794-4-4-4s-4,1.794-4,4c0,0.112,0.024,0.218,0.033,0.328l-7.596,2.659C36.741,38.804,35.469,38,34,38
		c-0.739,0-1.423,0.215-2.018,0.566l-8.622-9.413C23.761,28.53,24,27.794,24,27c0-2.206-1.794-4-4-4s-4,1.794-4,4
		c0,0.24,0.03,0.473,0.071,0.702L8.063,31.459z M3.041,34.402C3.014,34.272,3,34.138,3,34s0.014-0.272,0.041-0.402
		C3.227,32.687,4.035,32,5,32s1.773,0.687,1.959,1.598C6.986,33.728,7,33.862,7,34s-0.014,0.272-0.041,0.402
		C6.773,35.313,5.965,36,5,36S3.227,35.313,3.041,34.402z M18,27c0-1.103,0.897-2,2-2s2,0.897,2,2s-0.897,2-2,2S18,28.103,18,27z
		 M36,42c0,1.103-0.897,2-2,2s-2-0.897-2-2s0.897-2,2-2S36,40.897,36,42z M47,37c0-1.103,0.897-2,2-2s2,0.897,2,2s-0.897,2-2,2
		S47,38.103,47,37z M65,50c1.103,0,2,0.897,2,2s-0.897,2-2,2s-2-0.897-2-2S63.897,50,65,50z M81,22c0-0.965,0.687-1.773,1.598-1.959
		C82.728,20.014,82.862,20,83,20s0.272,0.014,0.402,0.041C84.313,20.227,85,21.035,85,22s-0.687,1.773-1.598,1.959
		C83.272,23.986,83.138,24,83,24s-0.272-0.014-0.402-0.041C81.687,23.773,81,22.965,81,22z"/>
</g>
</svg>
