<?xml version="1.0" encoding="utf-8"?>
<!-- Generator: Adobe Illustrator 17.1.0, SVG Export Plug-In . SVG Version: 6.00 Build 0)  -->
<!DOCTYPE svg PUBLIC "-//W3C//DTD SVG 1.1//EN" "http://www.w3.org/Graphics/SVG/1.1/DTD/svg11.dtd">
<svg version="1.1" id="Layer_1" xmlns="http://www.w3.org/2000/svg" xmlns:xlink="http://www.w3.org/1999/xlink" x="0px" y="0px"
	 viewBox="0 0 86.071 75" enable-background="new 0 0 86.071 75" xml:space="preserve">
<g>
	<path fill="#A4BDE3" d="M43.358,73.01c-18.461,0-33.772-14.336-35.327-32.469l3.31,3.549c0.196,0.21,0.461,0.316,0.727,0.316
		c0.243,0,0.487-0.088,0.679-0.268c0.401-0.375,0.423-1.004,0.048-1.406L8.37,37.988l-0.746-0.799
		c-0.005-0.006-0.013-0.008-0.018-0.013c-0.061-0.063-0.136-0.107-0.212-0.152c-0.034-0.02-0.061-0.048-0.097-0.064
		c-0.071-0.032-0.15-0.04-0.228-0.053c-0.047-0.009-0.09-0.031-0.139-0.032c-0.007,0-0.014,0.004-0.021,0.003
		c-0.007,0-0.014-0.004-0.021-0.004c-0.048,0-0.089,0.022-0.136,0.029c-0.08,0.012-0.159,0.018-0.233,0.049
		c-0.056,0.023-0.1,0.062-0.15,0.095c-0.051,0.033-0.108,0.054-0.152,0.096l-5.903,5.542c-0.4,0.376-0.421,1.006-0.045,1.407
		c0.376,0.398,1.005,0.419,1.405,0.045l4.322-4.058C7.331,59.527,23.647,75,43.358,75c18.269,0,33.789-13.063,36.902-31.062
		c0.093-0.542-0.269-1.056-0.81-1.151c-0.539-0.091-1.056,0.269-1.149,0.81c-0.005,0.03-0.012,0.059-0.017,0.089
		C75.299,60.683,60.626,73.01,43.358,73.01z"/>
	<path fill="#5175B9" d="M43,15.392c-10.723,0-19.711,7.555-21.945,17.626c-0.349,1.573-0.539,3.204-0.539,4.88
		c0,0.363,0.01,0.724,0.027,1.083C21.11,50.889,30.966,60.404,43,60.404c10.786,0,19.818-7.643,21.986-17.8
		c0.324-1.518,0.498-3.092,0.498-4.706c0-0.503-0.023-1.001-0.055-1.496C64.657,24.688,54.895,15.392,43,15.392z M63.496,37.898
		c0,11.312-9.194,20.516-20.496,20.516c-11.301,0-20.496-9.203-20.496-20.516S31.699,17.382,43,17.382
		C54.302,17.382,63.496,26.585,63.496,37.898z"/>
	<path fill="#5175B9" d="M52.871,24.562c-0.45-0.315-1.07-0.206-1.384,0.245l-8.34,11.926l-4.939-4.394
		c-0.411-0.365-1.039-0.328-1.404,0.083c-0.365,0.411-0.328,1.04,0.083,1.405l5.773,5.136c0.016,0.014,0.036,0.019,0.053,0.032
		c0.015,0.012,0.022,0.029,0.038,0.04c0.047,0.033,0.1,0.05,0.151,0.074c0.033,0.016,0.063,0.036,0.098,0.048
		c0.105,0.036,0.212,0.058,0.32,0.058c0,0,0,0,0,0c0,0,0,0,0,0c0.147,0,0.291-0.038,0.426-0.102
		c0.044-0.021,0.076-0.058,0.117-0.085c0.069-0.046,0.144-0.082,0.201-0.147c0.016-0.017,0.02-0.04,0.034-0.058
		c0.01-0.013,0.027-0.018,0.037-0.032l8.981-12.842C53.43,25.497,53.321,24.877,52.871,24.562z"/>
	<path fill="#A4BDE3" d="M85.685,31.243c-0.4-0.377-1.031-0.357-1.405,0.045l-3.129,3.341C79.673,15.289,63.278,0,43.587,0
		C25.228,0,9.084,13.679,6.329,31.819c-0.083,0.543,0.298,1.051,0.84,1.134c0.544,0.084,1.064-0.291,1.146-0.834
		c0.004-0.024,0.009-0.047,0.013-0.071C10.968,14.907,26.053,1.99,43.414,1.99c18.799,0,34.274,14.716,35.451,33.243l-4.252-3.991
		c-0.4-0.377-1.028-0.358-1.405,0.044c-0.376,0.401-0.355,1.029,0.046,1.405l5,4.689l0.894,0.839
		c0.182,0.171,0.421,0.353,0.67,0.356c0.003,0,0.004,0.097,0.007,0.097c0.001,0,0.001,0,0.002,0c0.011,0,0.021,0,0.032,0
		c0.008,0,0.256-0.1,0.264-0.1c0.55-0.026,1.633-0.536,1.633-1.067c0-0.008,0-0.015,0-0.022c0-0.003,0-0.006,0-0.009
		c0-0.022-0.243-0.044-0.244-0.065l4.34-4.758C86.228,32.248,86.086,31.618,85.685,31.243z"/>
</g>
</svg>
